# xmcd
#
# Track frame offsets: 
#        150
#        15364
#        31323
#        47140
#        64697
#        79120
#        103187
#        121689
#        132837
#        147195
#        159902
#        178035
#
# Disc length: 2588 seconds
#
# Revision: 0
# Processed by: cddbd v1.5.2PL0 Copyright (c) Steve Scherf et al.
# Submitted via: ExactAudioCopy v1.0b3
#
DISCID=920a1a0c
DTITLE=Various Artist - #1 Country Hits
DYEAR=2012
DGENRE=Country
TTITLE0=Mark Wills - 19 Something
TTITLE1=Pam Tillis - Mi Vida Loca
TTITLE2=Tanya Tucker - Here's Some Love
TTITLE3=Doug Stone - Too Busy Being In Love
TTITLE4=T.G. Sheppard - Do You Wanna Go to Heaven
TTITLE5=Restless Heart - The Bluest Eyes In Texas
TTITLE6=Juice Newton - Sweetest Thing
TTITLE7=Mickey Gilley - That's All That Matters
TTITLE8=T. Graham Brown - Hell And High Water
TTITLE9=Holly Dunn - You Really Had Me Going
TTITLE10=Janie Fricke - Tell Me A Lie
TTITLE11=Exile - She's A Miracle
EXTD=
EXTT0=
EXTT1=
EXTT2=
EXTT3=
EXTT4=
EXTT5=
EXTT6=
EXTT7=
EXTT8=
EXTT9=
EXTT10=
EXTT11=
PLAYORDER=
